<svg xmlns="http://www.w3.org/2000/svg" xmlns:xlink="http://www.w3.org/1999/xlink" width="500" zoomAndPan="magnify" viewBox="0 0 375 374.999991" height="500" preserveAspectRatio="xMidYMid meet" version="1.0"><defs><clipPath id="37f0396185"><path d="M 56.867188 125 L 318.242188 125 L 318.242188 306.441406 L 56.867188 306.441406 Z M 56.867188 125 " clip-rule="nonzero"/></clipPath><clipPath id="00fbd3957c"><path d="M 241.132812 52.449219 L 305.910156 52.449219 L 305.910156 115 L 241.132812 115 Z M 241.132812 52.449219 " clip-rule="nonzero"/></clipPath></defs><g clip-path="url(#37f0396185)"><path fill="#9089fc" d="M 279.332031 229.867188 C 280.457031 224.511719 281.136719 219.003906 281.335938 213.371094 C 281.78125 213.023438 282.222656 212.667969 282.660156 212.320312 C 322.828125 180.042969 334.441406 142.558594 288.789062 125.507812 C 304.117188 142.863281 298.488281 163.136719 279.445312 182.589844 C 278.914062 183.132812 278.371094 183.671875 277.824219 184.210938 C 244.1875 217.199219 172.390625 247.503906 99.605469 256.746094 C 99.117188 256.808594 98.632812 256.867188 98.132812 256.929688 C 84.324219 258.625 70.476562 259.566406 56.867188 259.609375 C 72.777344 264.347656 89.097656 266.992188 105.421875 267.878906 C 105.855469 267.863281 106.285156 267.84375 106.71875 267.828125 C 106.875 267.820312 107.03125 267.820312 107.191406 267.808594 C 118.382812 282.78125 133.835938 294.402344 151.75 300.871094 C 144.035156 291.972656 137.53125 280.03125 132.769531 266 C 136.257812 265.652344 139.757812 265.269531 143.246094 264.851562 C 150.773438 286.449219 162.640625 301.835938 176.410156 306.242188 C 177.359375 306.320312 178.300781 306.390625 179.261719 306.433594 L 179.261719 259.234375 C 182.78125 258.566406 186.304688 257.871094 189.832031 257.128906 L 189.832031 306.433594 C 190.785156 306.382812 191.734375 306.320312 192.683594 306.242188 C 209.6875 300.800781 223.804688 278.613281 230.410156 248.660156 C 222.277344 250.742188 213.695312 252.488281 204.683594 253.867188 C 204.191406 253.945312 203.695312 254.015625 203.199219 254.085938 C 217.664062 249.3125 231.363281 243.535156 243.925781 237.09375 L 277.519531 237.09375 C 278.214844 234.726562 278.816406 232.3125 279.332031 229.875 Z M 279.332031 229.867188 " fill-opacity="1" fill-rule="evenodd"/></g><path fill="#9089fc" d="M 190.207031 130.554688 L 179.457031 145.492188 C 196.292969 145.769531 208.695312 148.609375 190.0625 169.300781 C 223.3125 140.042969 215.992188 130.765625 190.21875 130.554688 Z M 190.207031 130.554688 " fill-opacity="1" fill-rule="evenodd"/><path fill="#9089fc" d="M 175.5625 80.453125 C 175.5625 87.503906 181.28125 93.210938 188.34375 93.210938 C 195.398438 93.210938 201.125 87.503906 201.125 80.453125 C 201.125 73.410156 195.398438 67.699219 188.34375 67.699219 C 181.289062 67.699219 175.5625 73.410156 175.5625 80.453125 Z M 175.5625 80.453125 " fill-opacity="1" fill-rule="evenodd"/><path fill="#9089fc" d="M 166.375 109.828125 C 157.777344 144.925781 140.785156 175.59375 118.054688 203.222656 C 149.949219 181.085938 176.121094 152.175781 194.71875 114.277344 C 214.902344 117.089844 235.816406 116.871094 253.945312 98.042969 C 211.554688 127.089844 148.902344 66.507812 128.648438 120.765625 C 138.578125 109.304688 151.714844 108.183594 166.363281 109.839844 Z M 166.375 109.828125 " fill-opacity="1" fill-rule="evenodd"/><g clip-path="url(#00fbd3957c)"><path fill="#9089fc" d="M 273.691406 52.457031 L 279.488281 73.324219 L 299.433594 64.835938 L 286.707031 82.363281 L 305.792969 92.648438 L 284.128906 93.640625 L 287.980469 114.945312 L 273.691406 98.664062 L 259.410156 114.945312 L 263.253906 93.640625 L 241.589844 92.648438 L 260.683594 82.363281 L 247.953125 64.835938 L 267.898438 73.324219 Z M 273.691406 52.457031 " fill-opacity="1" fill-rule="evenodd"/></g><path fill="#ff80b5" d="M 135.699219 245.753906 L 135.699219 215.375 L 108.410156 215.375 L 108.410156 250.863281 C 109.613281 250.679688 110.820312 250.488281 112.019531 250.296875 C 119.914062 249.027344 127.816406 247.503906 135.699219 245.753906 Z M 233.375 157.765625 L 233.375 210.132812 C 242.871094 204.980469 252.199219 199.199219 260.664062 192.8125 L 260.664062 157.765625 Z M 191.71875 170.824219 L 191.71875 229.050781 C 196.933594 227.074219 202.085938 224.984375 207.160156 222.800781 C 211.046875 221.128906 215.007812 219.332031 219.007812 217.4375 L 219.007812 170.832031 L 191.71875 170.832031 Z M 150.070312 195.082031 L 150.070312 242.289062 C 159.261719 239.90625 168.378906 237.199219 177.359375 234.175781 L 177.359375 195.082031 Z M 150.070312 195.082031 " fill-opacity="1" fill-rule="evenodd"/><path fill="#9089fc" d="M 241.214844 247.957031 C 236.636719 269.835938 228.171875 288.359375 217.332031 300.871094 L 217.734375 300.722656 C 242.765625 291.558594 262.933594 272.335938 273.324219 247.957031 Z M 241.214844 247.957031 " fill-opacity="1" fill-rule="evenodd"/></svg>